<svg xmlns="http://www.w3.org/2000/svg" width="100" height="42" viewBox="0 0 100 42">
  <defs>
    <style>
      .cls-1 {
        fill: #191919;
        fill-rule: evenodd;
      }
    </style>
  </defs>
  <path id="oval_copy" data-name="oval copy" class="cls-1" d="M22,19.5q1.372,1.871,1.372,5.705A9.768,9.768,0,0,1,22,30.93q-1.613,2.217-5.562,2.217T10.873,30.93q-1.4-1.894-1.4-5.728t1.4-5.705q1.613-2.217,5.562-2.217T22,19.5h0Zm-5.562-7q-12.4,0-12.4,12.7t12.4,12.7q12.375,0,12.375-12.7T16.435,12.5h0Zm13.507,0.277L36.924,35.18a3.148,3.148,0,0,0,3.395,2.448h2.456a3.148,3.148,0,0,0,3.395-2.448l6.982-22.405H50.214a3.148,3.148,0,0,0-3.395,2.448L41.547,32.178,36.274,15.224a3.149,3.149,0,0,0-3.395-2.448H29.942ZM74.387,28.644q-1.638,4.5-7.127,4.5-3.9,0-5.465-2.217-1.3-1.848-1.3-5.728,0-3.834,1.4-5.705,1.613-2.24,5.562-2.241T73.014,19.5q1.372,1.871,1.372,5.705v3.442Zm0,6.491a2.277,2.277,0,0,0,.77,1.732,2.71,2.71,0,0,0,1.95.762h2.721V25.2q0-12.7-12.375-12.7-12.4,0-12.4,12.7t11.557,12.7q5.61,0,7.777-2.772h0Zm10.5-5.982q0,4.735,1.469,6.548a5.627,5.627,0,0,0,4.213,2q0.6,0.046,1.2.046a20.086,20.086,0,0,0,4.334-.531V34.9q0-2.055-2.7-2.056a8.3,8.3,0,0,1-1.156.092,3.968,3.968,0,0,1-1.2-.162q-0.722-.208-0.722-3.626V6.562a2.367,2.367,0,0,0-.794-1.755A2.673,2.673,0,0,0,87.6,4.067H84.884V29.152Z"/>
</svg>
