<svg id="Group_1_copy" data-name="Group 1 copy" xmlns="http://www.w3.org/2000/svg" width="170" height="170" viewBox="0 0 170 170">
  <defs>
    <style>
      .cls-1 {
        fill: #092544;
        fill-rule: evenodd;
      }
    </style>
  </defs>
  <path id="Rectangle_1_copy" data-name="Rectangle 1 copy" class="cls-1" d="M44.962,6.776a5.661,5.661,0,0,0,0,8.567l81.6,73.869a7.2,7.2,0,0,0,9.464,0,5.661,5.661,0,0,0,0-8.567L54.426,6.776A7.2,7.2,0,0,0,44.962,6.776Z"/>
  <path id="Rectangle_1_copy_2" data-name="Rectangle 1 copy 2" class="cls-1" d="M44.923,164.224a5.659,5.659,0,0,1,0-8.567l81.633-73.869a7.2,7.2,0,0,1,9.468,0,5.66,5.66,0,0,1,0,8.567L54.391,164.224A7.2,7.2,0,0,1,44.923,164.224Z"/>
  <path id="Rectangle_1_copy_3" data-name="Rectangle 1 copy 3" class="cls-1" d="M40.962,6.776a5.661,5.661,0,0,0,0,8.567l81.6,73.869a7.2,7.2,0,0,0,9.464,0,5.661,5.661,0,0,0,0-8.567L50.426,6.776A7.2,7.2,0,0,0,40.962,6.776Z"/>
  <path id="Rectangle_1_copy_3-2" data-name="Rectangle 1 copy 3" class="cls-1" d="M40.923,164.224a5.659,5.659,0,0,1,0-8.567l81.633-73.869a7.2,7.2,0,0,1,9.468,0,5.66,5.66,0,0,1,0,8.567L50.391,164.224A7.2,7.2,0,0,1,40.923,164.224Z"/>
</svg>
