<svg xmlns="http://www.w3.org/2000/svg" width="200" height="200" viewBox="0 0 200 200">
  <defs>
    <style>
      .cls-1 {
        fill: #0d0d0d;
        fill-rule: evenodd;
      }
    </style>
  </defs>
  <path id="nest_2" data-name="nest 2" class="cls-1" d="M153.365,89.982H148.6l-3.812,4.771-2.859-.954v0.954l-2.858,1.908v1.908l-2.859,1.908v1.908l-9.53,2.863H111.435c1.576-8.275-.2-15.425-2.859-21.945V80.44h-0.952V78.532h-0.953q-0.477-1.908-.953-3.817l-1.906-.954q0.476-1.431.953-2.862c2.016-1.783,2.26-4.352,3.811-6.679l1.906-.954V61.358l4.765-3.816,3.812-4.771h1.906q0.475-.954.953-1.908c4.171-2.628,9.353-2.906,16.2-2.862v0.954h2.858q0.477,0.954.953,1.908h1.906v0.954l3.812,2.862q0.477,1.908.953,3.816h0.953q0.477,1.908.953,3.817h0.953v2.862h0.953v3.816C154.867,76.631,153.6,81.542,153.365,89.982Zm-43.836,15.266a95.536,95.536,0,0,1-33.352-5.725H72.365V98.569H70.459V97.615H67.6V96.661l-3.812-.954V94.752H61.882V93.8c-2.249-1.823-3.51-3.859-6.671-4.771v1.908l-8.576-5.725V84.257h0.953V77.578h0.953V72.807h0.953l0.953-5.725H51.4V65.174h0.953l0.953-3.817,1.906-.954V58.5l3.812-2.862,0.953-1.908h1.906V52.771c3.628-1.942,11.644-2.755,16.2-.954v0.954l4.765,0.954v0.954l2.859,0.954,0.953,1.908h1.906l3.812,4.771C102.692,72.64,109.845,84.141,109.529,105.248Zm7.624-38.165c-3.16,5.325-8.024,15,3.812,15.266,2.5-4.293,3.775-3.014,3.811-10.5-1.332-1.141-2.1-3.092-2.858-4.771h-4.765ZM83.8,73.762V75.67l-1.906.954-0.953,7.633h0.953v2.862h0.953v1.908l2.859,0.954v0.954a5.638,5.638,0,0,0,7.624-3.817h0.953c1.588-2.664-3.413-13.135-3.812-13.358H88.565V72.807ZM38.059,81.395c0.652,3.252,2.123,4.4,2.859,7.633h1.906V87.119h2.859l0.953,1.908h1.906l1.906,2.862c2.153,1.532,4.127,1.813,5.718,3.817h0.953c0.167-.145-0.543-3.243.953-1.908v0.954c1.163,0.628,1.338,1.534,1.906,1.908h1.906l0.953,1.908h2.859v0.954H67.6v0.954h2.859v0.954h2.859v0.954h2.859v0.954h3.812v0.955H83.8v0.954h4.765V106.2l15.247,0.954c3.29,0.929,16.319,2.269,20.964.954,3.235-.916,7.976-2.225,11.436-2.862,1.717-3.008,4.726-4.89,5.717-8.587h1.906q-0.476,1.431-.953,2.862h1.906c0.97-3.793,3.951-4.653,5.718-7.633h0.953V93.8a15,15,0,0,0-5.718,7.633h1.906c2.052-3.127,5.571-3.515,8.577-5.725l4.764-6.679V87.119l1.906-.954a18.76,18.76,0,0,0,2.859-6.679h1.906l-4.765,9.541H164.8c1.529-2.807,6.879-9.916,9.529-11.449v1.908a15.664,15.664,0,0,0-4.764,8.587c3.218-.668,3.671-2.069,6.67-2.862v0.954c-3.974,2.261-6.538,6.359-11.435,7.633v1.908c5.279,0.12,9.339,2.121,13.341,3.817a12.123,12.123,0,0,1,.953,4.771c-1.954,1.623-.791,2.131-1.906,3.816l-2.859,1.908v7.633c1.082,0.806.139-.121,0.953,0.955a14.94,14.94,0,0,1,5.718-.955v2.863l-10.482.954v1.908h4.764v0.954l-1.906.954c-1.217,1.369-.095.6-1.905,0v0.955h-0.953q-0.477,1.908-.953,3.816l-4.765,3.817-0.953,1.908h-1.906q-0.476.954-.953,1.908h-1.906v0.954h-2.858V139.6h-2.859v0.954h-2.859v0.955l-6.671.954v0.954h2.859v0.954h-0.953c-2.282,2.086-9.977,1.836-13.341.954v-0.954l-9.529.954v4.771h-2.859v-1.909c-1.085,1.088-.38,0-0.953,1.909-1.085,1.087-.38,0-0.953,1.908l-2.859-.954v-2.863c-17.133.271-29.648-.576-41.929-4.77H69.506v-0.954c-5.179-1.6-15.992.552-18.106-.954-1.081-.806-0.139.121-0.953-0.955l5.718-.954v-0.954c-6.8-2.586-22.1-11.377-23.824-18.128a21.485,21.485,0,0,0-7.624,1.908v-0.954H23.765l0.953-2.862H22.812v-2.863h6.671c0.834-2.209.97-4.2,0.953-7.633l-8.577-2.862v-1.909h0.953v0.955c0.819,1.8.953-1.909,0.953-1.909-2.279-.442-3-1.105-4.765-1.908V99.523c1.081-.805.139,0.121,0.953-0.954,3.855,0.8,4.745,2.917,8.577,3.816v-0.954c-1.085-1.087-.38,0-0.953-1.908l5.718-1.908V95.706H27.577V94.752a7.388,7.388,0,0,0,1.906-2.862,32.952,32.952,0,0,0,6.671.954V90.936H33.294V89.982c-1.081-.806-0.139.121-0.953-0.954h0.953c1.086-1.086,0-.38,1.906-0.954-0.339-4.226-2.322-7.267-3.812-10.5h1.906C34.433,80.224,34.434,80.986,38.059,81.395Z"/>
</svg>
