<svg xmlns="http://www.w3.org/2000/svg" width="204" height="190" viewBox="0 0 204 190">
  <defs>
    <style>
      .cls-1 {
        fill: #dfdfdf;
      }

      .cls-2 {
        fill: #191919;
        fill-rule: evenodd;
      }
    </style>
  </defs>
  <circle class="cls-1" cx="52.5" cy="95.5" r="26.5"/>
  <circle id="Ellipse_3_copy" data-name="Ellipse 3 copy" class="cls-1" cx="148.812" cy="63.125" r="21.5"/>
  <circle id="Ellipse_3_copy_2" data-name="Ellipse 3 copy 2" class="cls-1" cx="130.812" cy="147.125" r="21.5"/>
  <path id="settings3_1" data-name="settings3 1" class="cls-2" d="M92.951,81.339a111.075,111.075,0,0,1,11.48.6c1.434,2.161,3.178,1.768,3.625,5.423h0.6v4.821a127.09,127.09,0,0,1-.6,13.257c-1.845,1.155-.41.852-1.209,1.807l-4.229,2.411c-2.773.913-7.171-1.059-9.063,0.6-1.067.963-.528,1.172-1.208,2.41h-0.6v1.206h-0.6v1.2h-0.6c-1.021,1.8-1.5,3.575-3.021,4.82,0.458,1.852,1.622,2.8,2.417,4.218v1.206l1.208,0.6,0.6,6.026-2.417,4.218H88.117l-0.6,1.2-2.417.6-0.6,1.205-3.625,1.2-0.6,1.205H79.054v0.6l-3.625,1.205v0.6c-2.788.981-5.35-.828-7.251-1.206l-5.438-8.436a48.768,48.768,0,0,1-9.063.6l-3.021-.6v0.6c-2.915,2-2.721,6.793-6.646,7.833-1.23,1.266-3.471,1.253-6.042,1.206-1.079-1.18-1.154-.513-2.417-1.206v-0.6H34.342v-0.6H33.134l-0.6-1.205-3.625-1.2-0.6-1.205-2.417-.6-0.6-1.2c-3.005-2.105-3.68-3.292-3.625-8.436,1.2-1.11-.062-0.647.6-1.808l1.208-.6,1.208-3.616,1.208-.6c0.273-1.183-.329-0.787-0.6-1.206l-5.438-10.243c-7.025.231-13.264,0.078-13.9-6.026H5.34V98.814a127.04,127.04,0,0,1,.6-13.257c2.167-1.43,1.773-3.17,5.438-3.616,1.381-1.259,6.576-.663,9.063-0.6,0.943-4.656,4.849-6.807,5.438-11.449-1.473-.948-0.4-0.463-1.208-1.808h-0.6V66.878h-0.6V65.672l-1.208-.6-0.6-6.026,2.417-4.218h1.208l0.6-1.205,2.417-.6,0.6-1.205,3.625-1.205,0.6-1.205h1.208V48.8L37.967,47.6v-0.6c2.788-.982,5.35.828,7.251,1.205l1.208,1.808h0.6l0.6,2.41,1.209,0.6v1.205h0.6v1.205h0.6l0.6,1.808a48.744,48.744,0,0,1,9.063-.6l3.021,0.6v-0.6c2.59-2.359,2.687-7.4,6.646-8.436,1.23-1.266,3.471-1.252,6.042-1.205,1.079,1.18,1.154.512,2.417,1.205v0.6h1.208v0.6h1.208l0.6,1.205,3.625,1.205,0.6,1.205,2.417,0.6,0.6,1.205c3.005,2.1,3.68,3.292,3.625,8.436h-0.6V65.07l-1.208.6v1.205c-0.988,1.755-2.091,2.22-2.417,4.821C89.269,73.158,92.372,78.677,92.951,81.339ZM51.864,78.327c-1.4,1.5-1.376.429-3.021,1.205v0.6H47.635l-0.6,1.205H45.822l-0.6,1.205L42.2,84.955V86.16l-1.208.6v1.205h-0.6v1.808h-0.6v1.205h-0.6v9.641h0.6v1.2h0.6v1.2h0.6v1.2h0.6v1.206h0.6v1.2l1.208,0.6,2.417,3.013h1.208v0.6h1.208v0.6h1.209v0.6h1.208v0.6h1.208v0.6h9.667v-0.6H62.74v-0.6h1.208v-0.6h1.208v-0.6h1.209v-0.6h1.208l2.417-3.013,1.208-.6v-1.2h0.6v-1.206h0.6v-1.2h0.6v-1.2h0.6v-1.2h0.6V90.981h-0.6l-1.208-3.615H71.8l-0.6-2.41-1.208-.6-2.417-3.013H66.365v-0.6H65.157v-0.6H63.948v-0.6H62.74v-0.6H61.532v-0.6H51.864Z"/>
  <path id="settings3_1_copy_2" data-name="settings3 1 copy 2" class="cls-2" d="M177.675,51.757a89.162,89.162,0,0,1,9.216.484c1.151,1.735,2.552,1.42,2.91,4.354h0.486v3.87a101.887,101.887,0,0,1-.486,10.642c-1.48.928-.329,0.684-0.97,1.451l-3.395,1.935c-2.227.733-5.757-.85-7.276,0.484-0.856.773-.424,0.94-0.97,1.935h-0.485V77.88H176.22v0.968h-0.485c-0.82,1.443-1.2,2.871-2.426,3.87,0.368,1.486,1.3,2.249,1.941,3.386v0.967l0.97,0.484q0.242,2.418.485,4.838l-1.94,3.386h-0.971q-0.242.484-.485,0.968l-1.94.484-0.485.968-2.91.968q-0.243.484-.485,0.968h-0.971v0.483l-2.91.968v0.484c-2.238.788-4.3-.665-5.821-0.968l-4.365-6.772a39.134,39.134,0,0,1-7.276.484l-2.426-.484v0.484c-2.34,1.605-2.184,5.454-5.335,6.289-0.988,1.016-2.786,1.005-4.851.968-0.866-.947-0.926-0.411-1.94-0.968v-0.484h-0.97v-0.483h-0.97q-0.243-.484-0.485-0.968l-2.911-.968q-0.242-.484-0.485-0.968l-1.94-.484q-0.243-.484-0.485-0.968c-2.413-1.69-2.954-2.643-2.911-6.772,0.965-.891-0.049-0.519.486-1.451l0.97-.484q0.484-1.451.97-2.9l0.97-.484c0.219-.949-0.264-0.631-0.485-0.968l-4.366-8.224c-5.639.186-10.648,0.063-11.156-4.837h-0.485v-3.87a101.9,101.9,0,0,1,.485-10.642c1.739-1.148,1.423-2.545,4.365-2.9,1.109-1.011,5.28-.532,7.276-0.484,0.757-3.738,3.893-5.465,4.366-9.191-1.183-.761-0.323-0.372-0.97-1.451h-0.485V40.147h-0.485V39.18l-0.97-.484-0.486-4.837,1.941-3.386h0.97q0.242-.484.485-0.968l1.94-.484q0.243-.484.485-0.968l2.911-.968q0.242-.484.485-0.967h0.97V25.635l2.91-.967V24.184c2.238-.788,4.3.664,5.821,0.968l0.97,1.451h0.485q0.243,0.967.485,1.935l0.97,0.484v0.967h0.485v0.968h0.485q0.243,0.726.485,1.451A39.134,39.134,0,0,1,151,31.924l2.426,0.484V31.924c2.079-1.894,2.157-5.942,5.335-6.773,0.988-1.016,2.787-1.005,4.851-.968,0.866,0.947.926,0.411,1.94,0.968v0.484h0.97v0.484h0.971q0.242,0.484.485,0.967l2.91,0.968,0.485,0.968,1.94,0.484q0.243,0.484.485,0.968c2.413,1.69,2.955,2.643,2.911,6.772H176.22V38.7l-0.97.484v0.968c-0.793,1.409-1.679,1.782-1.941,3.87C174.72,45.189,177.211,49.62,177.675,51.757Zm-32.984-2.419c-1.128,1.2-1.1.344-2.426,0.968V50.79h-0.97l-0.485.967h-0.97l-0.485.968L136.93,54.66v0.968l-0.971.484v0.968h-0.485V58.53h-0.485V59.5H134.5v7.74h0.485v0.968h0.485v0.968h0.485V70.14h0.486v0.968h0.485v0.968l0.97,0.484,1.94,2.419h0.97v0.484h0.97v0.484h0.97v0.484h0.97v0.484h0.971V77.4h7.761V76.913h0.97V76.429h0.97V75.945h0.97V75.461h0.97V74.978h0.97l1.94-2.419,0.971-.484V71.108H160.7V70.14h0.485V69.173h0.485V68.205h0.485V67.238h0.485V59.5h-0.485l-0.97-2.9H160.7q-0.243-.967-0.485-1.935l-0.971-.484-1.94-2.419h-0.97V51.274h-0.97V50.79h-0.97V50.306h-0.97V49.822h-0.97V49.339h-7.761Z"/>
  <path id="settings3_1_copy" data-name="settings3 1 copy" class="cls-2" d="M154.511,137.717a75.2,75.2,0,0,1,7.667.395c0.958,1.416,2.123,1.159,2.421,3.555H165v3.16a81.905,81.905,0,0,1-.4,8.691c-1.232.758-.274,0.559-0.807,1.185l-2.825,1.58c-1.852.6-4.789-.694-6.053,0.4-0.712.631-.352,0.768-0.807,1.58h-0.4v0.79h-0.4v0.791h-0.4c-0.682,1.178-1,2.344-2.017,3.16,0.306,1.213,1.083,1.836,1.614,2.765v0.79l0.807,0.4q0.2,1.975.4,3.95l-1.614,2.766h-0.807c-0.134.263-.269,0.526-0.4,0.79l-1.614.395q-0.2.395-.4,0.79l-2.421.79-0.4.79h-0.807v0.4l-2.421.79v0.4c-1.862.644-3.573-.542-4.843-0.79l-3.631-5.53a33.177,33.177,0,0,1-6.053.4l-2.018-.4v0.4c-1.947,1.31-1.818,4.453-4.439,5.135-0.822.83-2.318,0.821-4.035,0.79-0.721-.773-0.771-0.336-1.615-0.79v-0.395h-0.807v-0.4H114.56l-0.4-.79-2.422-.79c-0.134-.264-0.269-0.527-0.4-0.79l-1.614-.395-0.4-.79c-2.007-1.38-2.458-2.159-2.421-5.531,0.8-.728-0.041-0.424.4-1.185l0.807-.4,0.807-2.37,0.807-.4c0.182-.775-0.22-0.516-0.4-0.79l-3.632-6.716c-4.691.152-8.858,0.052-9.281-3.95H96v-3.16a81.78,81.78,0,0,1,.4-8.691c1.447-.938,1.184-2.078,3.632-2.37,0.922-.826,4.392-0.435,6.053-0.395,0.63-3.053,3.238-4.463,3.632-7.506-0.984-.621-0.269-0.3-0.807-1.185h-0.4v-0.79h-0.4v-0.79l-0.807-.395q-0.2-1.976-.4-3.95l1.614-2.766h0.807l0.4-.79,1.614-.395c0.134-.263.269-0.526,0.4-0.79l2.422-.79,0.4-.79h0.807v-0.395l2.422-.79V115.2c1.862-.644,3.573.542,4.842,0.79l0.807,1.185h0.4q0.2,0.79.4,1.58l0.807,0.4v0.79h0.4v0.79h0.4l0.4,1.185a33.177,33.177,0,0,1,6.053-.4l2.018,0.4v-0.4c1.729-1.546,1.794-4.851,4.439-5.53,0.821-.83,2.318-0.821,4.035-0.79,0.72,0.773.77,0.336,1.614,0.79v0.4h0.807v0.395h0.807l0.4,0.79,2.421,0.79q0.2,0.4.4,0.79l1.614,0.395c0.134,0.264.269,0.527,0.4,0.79,2.007,1.38,2.458,2.159,2.421,5.531h-0.4v1.185l-0.807.395v0.79c-0.66,1.15-1.4,1.455-1.614,3.16A16.673,16.673,0,0,1,154.511,137.717Zm-27.441-1.975c-0.938.98-.919,0.281-2.018,0.79v0.395h-0.807c-0.134.263-.269,0.526-0.4,0.79h-0.807l-0.4.79-2.018,1.58v0.79l-0.807.395v0.79h-0.4v1.185H119v0.79h-0.4v6.321H119v0.79h0.4v0.79h0.4v0.79h0.4v0.79h0.4v0.79l0.807,0.4,1.615,1.975h0.807v0.4h0.807v0.395h0.807v0.4h0.807v0.4h0.807v0.395h6.457v-0.395h0.807v-0.4h0.807v-0.4h0.807v-0.395h0.807v-0.4h0.807l1.614-1.975,0.807-.4v-0.79h0.4v-0.79h0.4v-0.79h0.4v-0.79h0.4v-0.79H142v-6.321h-0.4l-0.807-2.37h-0.4l-0.4-1.58-0.807-.395-1.614-1.975h-0.807v-0.4h-0.807v-0.4h-0.807v-0.395h-0.807v-0.4h-0.807v-0.4H127.07Z"/>
</svg>
